<svg width="650" height="100" viewBox="0 0 650 100" fill="none" xmlns="http://www.w3.org/2000/svg">
<g clip-path="url(#clip0)">
<path fill-rule="evenodd" clip-rule="evenodd" d="M403.327 45.409C404.348 45.2847 405.1 44.6415 405.153 43.6498C405.258 41.6491 405.262 39.6314 405.105 37.6366C405.064 37.1135 404.362 36.3769 403.82 36.2159C402.834 35.9221 401.741 35.9851 400.668 35.8973V45.5611C401.59 45.5127 402.466 45.5142 403.327 45.409ZM400.673 60.3465C401.884 60.2683 403.048 60.2821 404.179 60.0946C405.269 59.914 406.033 59.1504 406.087 58.0393C406.181 56.1007 406.194 54.1496 406.082 52.213C406.014 51.0442 405.233 50.2335 404.034 50.0706C402.953 49.924 401.852 49.9339 400.673 49.8701V60.3465ZM407.779 47.5629C410.518 48.9296 411.339 51.2565 411.23 54.0779C411.166 55.7115 411.326 57.3773 411.061 58.975C410.497 62.3787 407.76 64.6026 404.289 64.6726C402.209 64.7146 400.126 64.6954 398.045 64.6764C396.62 64.6636 395.662 63.7292 395.66 62.3072C395.648 52.8555 395.649 43.4038 395.659 33.9521C395.66 32.6707 396.467 31.6168 397.651 31.6011C400.167 31.5678 402.71 31.4866 405.198 31.7861C408.313 32.1609 410.196 34.4898 410.293 37.6364C410.346 39.3675 410.348 41.1029 410.294 42.834C410.233 44.7758 409.292 46.3037 407.779 47.5629Z" fill="#222222"/>
<path fill-rule="evenodd" clip-rule="evenodd" d="M454.597 50.1711C454.597 54.3488 454.605 58.4434 454.594 62.5378C454.588 64.6193 452.506 65.7737 450.702 64.7148C449.77 64.1677 449.544 63.2961 449.546 62.2934C449.555 57.5972 449.55 52.9007 449.55 48.2043C449.55 43.4135 449.543 38.6224 449.554 33.8316C449.558 32.1081 450.518 31.1563 452.169 31.1833C453.616 31.207 454.588 32.1679 454.593 33.6324C454.605 37.1625 454.597 40.6927 454.597 44.2228C454.597 44.566 454.597 44.9092 454.597 45.3231H460.106C460.122 44.9743 460.153 44.612 460.154 44.2499C460.157 40.7512 460.144 37.2525 460.162 33.754C460.17 32.1032 461.143 31.1678 462.758 31.1833C464.225 31.1973 465.193 32.1331 465.198 33.6014C465.212 37.0684 465.203 40.5357 465.203 44.0028C465.203 50.1174 465.204 56.2322 465.202 62.347C465.202 64.1204 464.316 65.0671 462.675 65.0599C461.059 65.0529 460.161 64.0841 460.158 62.3101C460.151 58.6538 460.156 54.9975 460.156 51.3414V50.1711H454.597Z" fill="#222222"/>
<path fill-rule="evenodd" clip-rule="evenodd" d="M438.056 63.5443C438.056 63.5553 438.055 63.5665 438.054 63.5774C437.834 63.5774 437.613 63.5773 437.393 63.5774C436.167 63.5786 435.645 64.0287 435.226 65.4432C434.854 66.6987 435.161 67.8089 436.043 68.4001C437.346 69.2736 440.072 69.0855 441.191 68.0058C441.972 67.2515 442.252 66.3283 441.948 65.2512C441.646 64.1812 440.851 63.7772 439.843 63.6669C439.25 63.602 438.652 63.5837 438.056 63.5443ZM440.572 48.7842H440.568C440.568 47.9045 440.614 47.0219 440.558 46.1459C440.471 44.8036 439.643 44.0456 438.372 44.0545C437.119 44.0633 436.28 44.847 436.238 46.1955C436.185 47.9219 436.184 49.6522 436.238 51.3783C436.28 52.7218 437.128 53.5126 438.376 53.5211C439.669 53.53 440.494 52.7278 440.564 51.3284C440.606 50.4823 440.572 49.6323 440.572 48.7842ZM444.209 43.729C445.24 44.8649 445.37 46.1893 445.317 47.5628C445.255 49.1646 445.37 50.796 445.101 52.3621C444.568 55.4743 442.037 57.463 438.88 57.4914C438.066 57.4986 437.253 57.4926 436.2 57.4926C436.185 57.8462 435.976 58.4703 436.193 58.8555C436.398 59.2202 437.036 59.4849 437.508 59.5284C438.572 59.6266 439.651 59.5577 440.723 59.5621C444.854 59.5786 447.401 62.5831 446.755 66.6735C446.266 69.7664 444.19 71.8579 440.79 72.5637C438.634 73.0116 436.456 72.9737 434.322 72.4026C430.46 71.3688 429.01 67.1806 431.504 64.2841C431.926 63.7939 432.482 63.4187 433.049 62.9278C431.785 62.042 431.252 60.8045 431.379 59.2802C431.503 57.7932 432.3 56.712 433.546 55.8129C431.594 53.8849 431.346 51.4773 431.478 48.9594C431.547 47.6417 431.475 46.3011 431.697 45.01C432.191 42.1374 434.542 40.2548 437.461 40.0612C439.687 39.9137 441.903 39.607 444.123 39.3709C444.311 39.3508 444.498 39.3223 444.687 39.3083C446.336 39.1862 447.023 39.6571 447.182 41.0147C447.359 42.5373 446.718 43.3645 445.143 43.6318C444.87 43.678 444.591 43.6903 444.209 43.729Z" fill="#222222"/>
<path fill-rule="evenodd" clip-rule="evenodd" d="M506.1 52.6966C506.1 50.4595 506.05 48.2206 506.125 45.9859C506.154 45.1103 505.758 44.7227 505.055 44.4538C503.426 43.8306 502.149 44.6969 502.141 46.4821C502.123 50.5783 502.13 54.6746 502.144 58.7707C502.146 59.1722 502.213 59.5927 502.347 59.9702C502.643 60.8053 503.519 61.2035 504.528 61.023C505.667 60.8191 506.099 60.3529 506.099 59.3135C506.101 57.1079 506.1 54.9022 506.1 52.6966ZM506.166 63.0691C505.182 64.3919 503.994 65.2039 502.397 65.2461C499.403 65.3252 497.321 63.4077 497.292 60.4061C497.242 55.1725 497.255 49.938 497.291 44.7043C497.304 42.9375 497.917 41.3867 499.629 40.5832C501.431 39.7372 503.24 39.8348 504.948 40.9073C505.316 41.1385 505.627 41.4592 506.1 41.8506V40.1288C506.1 38.0163 506.098 35.9036 506.101 33.7911C506.103 32.0534 506.893 31.1926 508.486 31.1832C510.123 31.1735 510.955 32.0476 510.955 33.8218C510.96 43.0285 510.958 52.2352 510.958 61.4421C510.958 61.8519 510.968 62.2622 510.955 62.6716C510.914 63.9555 510.249 64.8431 509.197 65.0357C507.864 65.2792 506.884 64.776 506.348 63.5699C506.29 63.4399 506.25 63.3018 506.166 63.0691Z" fill="#222222"/>
<path fill-rule="evenodd" clip-rule="evenodd" d="M423.234 63.0859C421.996 65.1579 420.098 65.5488 417.969 65.1337C415.866 64.7239 414.484 62.9902 414.459 60.5788C414.399 54.5262 414.425 48.4726 414.444 42.4195C414.448 41.1975 415.327 40.3511 416.522 40.2661C418.035 40.1585 419.006 40.8231 419.232 42.1472C419.29 42.4857 419.289 42.8366 419.289 43.1819C419.292 48.0371 419.29 52.8922 419.293 57.7476C419.294 58.1564 419.308 58.5668 419.343 58.9741C419.469 60.4653 420.357 61.089 421.801 60.7074C422.612 60.4931 423.063 60.0924 423.055 59.1235C423.012 53.7012 423.03 48.2783 423.038 42.8555C423.04 41.1941 423.873 40.2879 425.373 40.2644C427.006 40.2387 427.889 41.0963 427.89 42.7452C427.895 49.3029 427.893 55.8606 427.892 62.4183C427.892 63.9957 427.387 64.8089 426.272 65.0306C424.769 65.3297 423.845 64.7574 423.234 63.0859Z" fill="#222222"/>
<path fill-rule="evenodd" clip-rule="evenodd" d="M477.744 50.2201C477.744 48.6453 477.818 47.1726 477.719 45.7119C477.647 44.6466 476.946 44.1186 475.965 44.1229C475.044 44.1271 474.265 44.6678 474.2 45.6202C474.096 47.1367 474.172 48.6654 474.172 50.2201H477.744ZM474.122 54.0871C474.122 55.9454 474.077 57.6749 474.137 59.4011C474.179 60.5962 474.909 61.2568 475.979 61.2515C477.07 61.2462 477.734 60.6021 477.859 59.4234C477.876 59.2671 477.875 59.109 477.88 58.9518C477.927 57.3559 478.673 56.6007 480.189 56.6141C481.687 56.6272 482.451 57.4275 482.469 59.0019C482.511 62.7726 480.094 65.2419 476.31 65.2366C475.404 65.2353 474.471 65.1861 473.598 64.9678C471.029 64.3249 469.42 62.4792 469.321 59.5303C469.171 55.0333 469.152 50.5198 469.36 46.0262C469.572 41.4281 473.098 39.5103 477.392 40.1789C480.591 40.677 482.481 42.9732 482.591 46.2956C482.656 48.2465 482.623 50.2016 482.597 52.1544C482.58 53.4339 481.873 54.0811 480.555 54.0854C478.447 54.0921 476.339 54.0871 474.122 54.0871Z" fill="#222222"/>
<path fill-rule="evenodd" clip-rule="evenodd" d="M490.711 42.665C491.118 40.8456 492.181 40.1068 493.896 40.2602C495.252 40.3813 495.919 41.2124 495.885 42.8258C495.853 44.3076 495.08 45.2106 493.79 45.2155C493.323 45.2172 492.854 45.1156 492.388 45.0481C491.327 44.8937 490.961 45.1996 490.961 46.263C490.96 51.7153 490.967 57.1677 490.957 62.6199C490.954 64.4997 489.337 65.5861 487.569 64.9226C486.537 64.5353 486.105 63.7842 486.104 62.3356C486.101 55.9062 486.101 49.477 486.104 43.0476C486.104 41.4315 486.657 40.6299 487.868 40.4659C489.495 40.2453 490.2 40.7555 490.711 42.665Z" fill="#222222"/>
<path fill-rule="evenodd" clip-rule="evenodd" d="M520.485 62.1063C520.473 63.8715 519.254 65.065 517.489 65.0393C515.801 65.0147 514.637 63.7929 514.643 62.0507C514.65 60.2844 515.857 59.109 517.639 59.1353C519.345 59.1603 520.497 60.3637 520.485 62.1063Z" fill="#86BAD3"/>
</g>
<g clip-path="url(#clip1)">
<path fill-rule="evenodd" clip-rule="evenodd" d="M186.645 62.2461C184.878 62.2461 183.178 62.0053 181.544 61.5237C179.91 61.0421 178.552 60.3757 177.471 59.5245L179.127 55.7949C181.379 57.3853 183.907 58.1805 186.711 58.1805C188.168 58.1805 189.289 57.9397 190.073 57.4581C190.857 56.9765 191.248 56.3101 191.248 55.4589C191.248 54.6973 190.89 54.1037 190.172 53.6781C189.454 53.2525 188.179 52.8381 186.347 52.4349C184.293 52.0093 182.654 51.4941 181.428 50.8893C180.203 50.2845 179.309 49.5397 178.746 48.6549C178.183 47.7701 177.901 46.6781 177.901 45.3789C177.901 43.9453 178.293 42.6685 179.077 41.5485C179.861 40.4285 180.959 39.5493 182.372 38.9109C183.785 38.2725 185.419 37.9533 187.274 37.9533C188.93 37.9533 190.525 38.1997 192.06 38.6925C193.594 39.1853 194.814 39.8461 195.72 40.6749L194.064 44.4045C191.922 42.8141 189.67 42.0189 187.307 42.0189C185.96 42.0189 184.9 42.2821 184.128 42.8085C183.355 43.3349 182.968 44.0573 182.968 44.9757C182.968 45.5133 183.118 45.9557 183.416 46.3029C183.714 46.6501 184.21 46.9581 184.906 47.2269C185.602 47.4957 186.59 47.7757 187.87 48.0669C190.873 48.7389 193.031 49.6013 194.345 50.6541C195.659 51.7069 196.316 53.1629 196.316 55.0221C196.316 57.2621 195.466 59.0261 193.766 60.3141C192.065 61.6021 189.692 62.2461 186.645 62.2461ZM208.305 58.4829C208.813 58.4829 209.343 58.4493 209.895 58.3821L209.63 62.0781C208.99 62.1677 208.349 62.2125 207.709 62.2125C205.236 62.2125 203.431 61.6637 202.294 60.5661C201.157 59.4685 200.588 57.7997 200.588 55.5597V49.2429H197.508V45.4461H200.588V40.6077H205.589V45.4461H209.663V49.2429H205.589V55.5261C205.589 57.4973 206.495 58.4829 208.305 58.4829ZM219.93 62.2125C218.208 62.2125 216.696 61.8597 215.393 61.1541C214.09 60.4485 213.086 59.4517 212.379 58.1637C211.672 56.8757 211.319 55.3581 211.319 53.6109C211.319 51.8637 211.672 50.3461 212.379 49.0581C213.086 47.7701 214.09 46.7789 215.393 46.0845C216.696 45.3901 218.208 45.0429 219.93 45.0429C221.653 45.0429 223.165 45.3901 224.468 46.0845C225.771 46.7789 226.775 47.7701 227.482 49.0581C228.188 50.3461 228.542 51.8637 228.542 53.6109C228.542 55.3581 228.188 56.8757 227.482 58.1637C226.775 59.4517 225.771 60.4485 224.468 61.1541C223.165 61.8597 221.653 62.2125 219.93 62.2125ZM219.93 58.3485C222.359 58.3485 223.574 56.7694 223.574 53.6109C223.574 52.0205 223.259 50.8333 222.63 50.0493C222 49.2653 221.101 48.8733 219.93 48.8733C217.502 48.8733 216.287 50.4525 216.287 53.6109C216.287 56.7694 217.502 58.3485 219.93 58.3485ZM242.386 49.2093L239.571 49.5117C238.18 49.6461 237.197 50.0437 236.623 50.7045C236.049 51.3653 235.762 52.2445 235.762 53.3421V61.9437H230.761V45.4461H235.563V48.2349C236.38 46.3309 238.069 45.2893 240.63 45.1101L242.088 45.0093L242.386 49.2093ZM256.917 45.4797H261.819L252.015 67.9917H246.948L250.061 61.0365L243.371 45.4797H248.571L252.678 55.9629L256.917 45.4797ZM273.411 45.0429C274.824 45.0429 276.072 45.3901 277.153 46.0845C278.235 46.7789 279.08 47.7701 279.687 49.0581C280.294 50.3461 280.598 51.8413 280.598 53.5437C280.598 55.2461 280.294 56.7525 279.687 58.0629C279.08 59.3733 278.23 60.3925 277.137 61.1205C276.044 61.8485 274.802 62.2125 273.411 62.2125C272.285 62.2125 271.269 61.9717 270.364 61.4901C269.459 61.0085 268.763 60.3421 268.277 59.4909V61.9437H263.342V38.2557H268.344V47.6637C268.829 46.8349 269.519 46.1909 270.414 45.7317C271.308 45.2725 272.307 45.0429 273.411 45.0429ZM271.954 58.3485C273.124 58.3485 274.029 57.9285 274.669 57.0885C275.31 56.2485 275.63 55.0669 275.63 53.5437C275.63 52.0429 275.31 50.8949 274.669 50.0997C274.029 49.3045 273.124 48.9069 271.954 48.9069C270.783 48.9069 269.878 49.3157 269.238 50.1333C268.597 50.9509 268.277 52.1101 268.277 53.6109C268.277 55.1341 268.597 56.3045 269.238 57.1221C269.878 57.9397 270.783 58.3485 271.954 58.3485ZM291.461 62.2125C289.739 62.2125 288.227 61.8597 286.924 61.1541C285.621 60.4485 284.617 59.4517 283.91 58.1637C283.203 56.8757 282.85 55.3581 282.85 53.6109C282.85 51.8637 283.203 50.3461 283.91 49.0581C284.617 47.7701 285.621 46.7789 286.924 46.0845C288.227 45.3901 289.739 45.0429 291.461 45.0429C293.184 45.0429 294.696 45.3901 295.999 46.0845C297.301 46.7789 298.306 47.7701 299.013 49.0581C299.719 50.3461 300.073 51.8637 300.073 53.6109C300.073 55.3581 299.719 56.8757 299.013 58.1637C298.306 59.4517 297.301 60.4485 295.999 61.1541C294.696 61.8597 293.184 62.2125 291.461 62.2125ZM291.461 58.3485C293.89 58.3485 295.105 56.7694 295.105 53.6109C295.105 52.0205 294.79 50.8333 294.161 50.0493C293.531 49.2653 292.632 48.8733 291.461 48.8733C289.033 48.8733 287.818 50.4525 287.818 53.6109C287.818 56.7694 289.033 58.3485 291.461 58.3485ZM310.108 62.2125C308.386 62.2125 306.873 61.8597 305.57 61.1541C304.268 60.4485 303.263 59.4517 302.557 58.1637C301.85 56.8757 301.497 55.3581 301.497 53.6109C301.497 51.8637 301.85 50.3461 302.557 49.0581C303.263 47.7701 304.268 46.7789 305.57 46.0845C306.873 45.3901 308.386 45.0429 310.108 45.0429C311.83 45.0429 313.343 45.3901 314.645 46.0845C315.948 46.7789 316.953 47.7701 317.659 49.0581C318.366 50.3461 318.719 51.8637 318.719 53.6109C318.719 55.3581 318.366 56.8757 317.659 58.1637C316.953 59.4517 315.948 60.4485 314.645 61.1541C313.343 61.8597 311.83 62.2125 310.108 62.2125ZM310.108 58.3485C312.537 58.3485 313.751 56.7694 313.751 53.6109C313.751 52.0205 313.436 50.8333 312.807 50.0493C312.178 49.2653 311.278 48.8733 310.108 48.8733C307.679 48.8733 306.465 50.4525 306.465 53.6109C306.465 56.7694 307.679 58.3485 310.108 58.3485ZM338.5 61.9437H332.373L326.146 54.5853V61.9437H321.145V38.2557H326.146V52.5021L332.141 45.4797H338.103L331.28 53.3421L338.5 61.9437Z" fill="#333333"/>
<mask id="mask0" mask-type="alpha" maskUnits="userSpaceOnUse" x="131" y="29" width="34" height="42">
<path d="M132.784 67.7016L131.501 33.0339C131.459 31.8889 132.324 30.9186 133.452 30.8471L162.518 29.0042C163.665 28.9314 164.653 29.816 164.725 30.98C164.728 31.0239 164.729 31.0678 164.729 31.1117V68.8883C164.729 70.0546 163.797 71 162.648 71C162.616 71 162.585 70.9993 162.554 70.9979L134.771 69.7319C133.689 69.6826 132.825 68.7997 132.784 67.7016Z" fill="white"/>
</mask>
<g mask="url(#mask0)">
<path d="M132.784 67.7016L131.501 33.0339C131.459 31.8889 132.324 30.9186 133.452 30.8471L162.518 29.0042C163.665 28.9314 164.653 29.816 164.725 30.98C164.728 31.0239 164.729 31.0678 164.729 31.1117V68.8883C164.729 70.0546 163.797 71 162.648 71C162.616 71 162.585 70.9993 162.554 70.9979L134.771 69.7319C133.689 69.6826 132.825 68.7997 132.784 67.7016Z" fill="#FF4785"/>
<path d="M156.037 34.1625L156.236 29.3182L160.227 29L160.399 33.9958C160.405 34.1696 160.271 34.3155 160.1 34.3216C160.026 34.3242 159.955 34.3003 159.897 34.2542L158.358 33.024L156.535 34.4265C156.398 34.5317 156.204 34.5045 156.1 34.3659C156.056 34.3076 156.034 34.2356 156.037 34.1625Z" fill="white"/>
<path d="M150.932 44.8304C150.932 45.6519 156.387 45.2582 157.119 44.6811C157.119 39.0865 154.16 36.1466 148.742 36.1466C143.323 36.1466 140.287 39.1322 140.287 43.6107C140.287 51.4106 150.663 51.5599 150.663 55.8144C150.663 57.0086 150.087 57.7177 148.819 57.7177C147.166 57.7177 146.513 56.8615 146.59 53.9506C146.59 53.3191 140.287 53.1222 140.095 53.9506C139.606 61.0049 143.938 63.0396 148.895 63.0396C153.699 63.0396 157.465 60.4421 157.465 55.7397C157.465 47.38 146.936 47.6039 146.936 43.4614C146.936 41.782 148.165 41.5581 148.895 41.5581C149.664 41.5581 151.048 41.6955 150.932 44.8304Z" fill="white"/>
</g>
</g>
<line x1="366.755" y1="40.8567" x2="366.755" y2="59.8015" stroke="black" stroke-width="3" stroke-linecap="round" stroke-linejoin="round"/>
<line x1="356.782" y1="50.8291" x2="375.727" y2="50.8291" stroke="black" stroke-width="3" stroke-linecap="round" stroke-linejoin="round"/>
<defs>
<clipPath id="clip0">
<rect x="395.5" y="31" width="125" height="42" fill="white"/>
</clipPath>
<clipPath id="clip1">
<rect x="131.5" y="29" width="207" height="42" fill="white"/>
</clipPath>
</defs>
</svg>
