<svg width="275" height="287.76" viewBox="0 0 1250 1308" fill="none" xmlns="http://www.w3.org/2000/svg">
<path d="M901.46 577.604L838.655 524.7L829.319 430.3C829.319 430.3 818.71 406.907 781.961 407.32C745.211 407.733 714.912 432.119 714.912 432.119L721.957 404.427L678.672 366.402L670.185 318.458L656.605 277.954L616.716 243.649L564.944 239.516L492.803 263.075C492.803 263.075 461.401 287.873 449.095 297.38C436.788 306.886 422.784 386.82 422.784 386.82L442.729 395.747C432.12 396.574 415.146 407.32 412.6 410.626C410.054 413.933 421.087 428.399 424.057 433.358C427.028 438.318 427.028 460.224 424.057 472.623C421.087 485.022 358.282 644.147 353.614 653.983C348.946 663.82 356.16 671.838 356.16 671.838L409.629 701.597L426.179 707.383L449.519 820.217L509.353 1007.86L629.022 1081.02C629.022 1081.02 731.717 994.22 805.725 932.224C879.733 870.227 980.815 722.262 980.815 722.262L967.235 701.597L901.46 577.604Z" fill="#CDF5F9"/>
<path d="M935.833 832.616L917.161 839.229C911.22 847.495 911.22 860.721 911.22 860.721H923.951C923.951 860.721 934.984 861.548 938.379 860.721C941.774 859.895 947.715 856.092 950.261 850.14C952.807 844.189 950.261 832.616 950.261 832.616H935.833Z" fill="#CDF5F9"/>
<path d="M931.25 817.737L925.733 821.622L923.102 823.523H940.077L931.25 817.737Z" fill="#CDF5F9"/>
<path d="M1005.43 378.636C1005.43 369.709 997.789 366.402 997.789 366.402H990.151H980.815L974.874 370.535L987.605 386.82C987.605 386.82 1005.43 387.646 1005.43 378.636Z" fill="#CDF5F9"/>
<path d="M995.243 401.947C995.243 401.947 996.092 411.04 999.487 407.32C1002.88 403.6 1005.43 400.128 1005.43 400.128L999.487 392.028L995.243 401.947Z" fill="#CDF5F9"/>
<path d="M1008.82 386.82L1005.43 392.028H1015.61L1022.4 386.82H1008.82Z" fill="#CDF5F9"/>
<path d="M225.458 955.783L307.359 918.171L320.939 964.875L233.776 1002.9L225.458 955.783Z" fill="#F2E991"/>
<path d="M1249.43 164.294C1248.16 160.574 1240.95 158.921 1240.95 158.921C1240.95 158.921 1226.09 158.507 1219.3 154.374C1212.51 150.241 1180.26 153.961 1180.26 153.961C1190.87 146.108 1221.85 151.481 1234.16 149.001C1246.46 146.521 1246.46 134.122 1243.07 128.749C1239.67 123.376 1237.89 125.443 1237.89 125.443C1237.89 125.443 1227.37 130.402 1213.79 125.856C1200.21 121.309 1149.28 125.029 1149.28 125.029C1157.77 117.59 1207.42 104.364 1206.57 99.4041C1205.72 94.4443 1207.42 95.6843 1191.72 90.7245C1176.02 85.7648 1122.97 99.8174 1122.97 99.8174L1205.3 44.0205C1205.3 44.0205 1251.13 8.88916 1234.16 1.86289C1217.18 -5.16338 1170.08 28.728 1170.08 28.728C1170.08 28.728 1098.36 77.9119 1075.02 79.9785C1051.68 82.045 993.545 121.309 980.39 128.336C967.235 135.362 951.958 128.336 939.228 115.936C927.091 104.116 897.641 103.95 894.925 103.95C906.807 103.95 926.921 101.884 927.346 95.6843C927.77 89.4846 921.405 82.045 921.405 82.045C957.051 71.7123 959.597 60.1396 959.597 60.1396C954.08 55.1799 938.803 54.7666 938.803 54.7666C894.246 52.7 846.718 75.0188 846.718 75.0188C842.474 66.7526 824.227 64.686 824.227 64.686C831.016 62.2062 837.382 55.5932 837.382 55.5932C841.625 51.8734 846.718 49.3935 846.718 44.0205C846.718 38.6475 838.231 37.8209 838.231 37.8209C813.618 37.8209 796.643 44.4338 796.643 44.4338C805.979 33.6878 828.046 29.5547 828.046 29.5547C828.046 29.5547 836.957 23.355 834.836 17.982C832.714 12.609 824.651 13.4356 824.651 13.4356C759.3 15.5021 690.554 62.6195 690.554 62.6195C695.646 54.3533 718.137 41.1273 718.137 41.1273C716.44 29.1414 727.049 25.0083 732.141 22.9417C737.233 20.8752 739.355 14.2622 739.355 14.2622C734.263 13.4356 732.565 6.4093 732.565 6.4093C682.491 9.8811 635.303 46.4177 629.616 50.9641C632.417 46.583 640.395 35.1757 645.997 26.2482C652.786 15.5021 637.509 17.1554 637.509 17.1554C611.624 21.2885 600.59 44.4338 590.83 56.0065C581.07 67.5792 576.826 63.4461 576.826 63.4461C578.948 60.9662 580.221 54.7666 580.221 54.7666C576.402 52.7 570.037 54.7666 570.037 54.7666C542.029 69.6457 511.051 110.977 511.051 110.977C491.955 106.017 487.711 116.35 487.711 126.269C487.711 136.189 483.043 145.281 483.043 145.281C483.043 145.281 467.342 102.297 460.298 92.7911C453.253 83.285 444.851 89.0713 444.851 89.0713C451.216 94.4443 461.825 165.534 460.128 171.32C458.43 177.106 441.881 200.665 441.881 200.665C441.881 200.665 439.334 201.078 432.545 194.879C418.541 182.066 386.29 182.066 386.29 182.066C384.592 187.852 389.685 194.465 394.777 195.705C398.681 196.615 402.755 201.161 404.537 203.31C402.33 201.409 397.323 201.078 397.323 201.078C394.352 236.21 429.15 246.129 429.15 251.089C429.15 256.049 426.179 267.621 426.179 273.821C391.382 325.485 394.777 384.175 394.777 384.175C373.559 393.102 387.563 420.546 388.836 427.572C390.109 434.599 393.079 452.784 387.138 473.036C381.197 493.289 318.817 638.36 316.695 645.387C314.573 652.413 313.725 661.506 326.455 673.905C339.186 686.304 379.924 704.903 395.626 711.103C411.327 717.303 415.57 723.916 415.57 723.916C409.629 728.049 396.899 725.982 389.685 724.742C382.47 723.502 377.378 730.115 367.194 731.768C357.009 733.422 354.039 752.021 354.039 756.567C354.039 761.114 358.282 771.86 358.282 771.86C358.282 771.86 368.467 767.727 369.74 766.487C371.013 765.247 373.559 759.46 375.681 759.047C377.803 758.634 382.47 770.62 382.47 770.62C363.374 784.672 344.363 811.951 344.363 811.951L346.4 816.91L346.824 823.11C339.61 826.003 329.85 837.989 329.85 837.989L324.333 845.015L334.942 852.455L338.762 855.761C338.762 855.761 352.765 851.628 359.98 846.255C367.194 840.882 378.651 834.269 376.954 840.056C375.256 845.842 362.95 888.826 359.131 896.266C355.312 903.705 363.374 913.625 363.374 917.345C363.374 921.064 355.312 948.756 355.312 948.756C348.522 957.436 350.644 998.353 350.644 998.353L358.282 1000.83C352.765 1012.41 343.005 1023.98 337.064 1034.72C331.123 1045.47 336.215 1056.22 336.215 1056.22L342.581 1053.32L347.673 1059.11L354.463 1046.71L358.282 1074.82L370.588 1081.84L378.651 1081.43C387.138 1032.24 400.293 1004.14 400.293 1004.14C375.256 1082.67 377.378 1131.44 377.378 1131.44C377.378 1131.44 375.681 1150.45 375.681 1152.93C375.681 1155.41 383.744 1166.57 383.744 1166.57C381.197 1186.82 398.596 1199.64 398.596 1199.64C398.596 1199.64 388.836 1234.77 385.441 1247.58C382.046 1260.39 399.445 1268.24 401.142 1269.07C402.84 1269.9 407.083 1276.92 407.083 1276.92C410.054 1271.55 423.209 1242.21 422.36 1226.91C421.511 1211.62 433.393 1184.76 433.393 1184.76C436.364 1219.89 446.973 1226.91 446.973 1226.91C463.098 1229.81 465.22 1237.25 465.22 1237.25C465.22 1237.25 465.22 1273.62 468.615 1284.36C472.01 1295.11 475.829 1294.7 479.224 1295.94C482.619 1297.18 490.257 1303.79 490.257 1303.79C490.257 1301.31 495.35 1297.18 495.35 1297.18C494.076 1291.39 498.32 1278.16 498.32 1274.86C498.32 1271.55 510.202 1269.48 510.202 1269.48C510.202 1269.48 511.9 1294.7 514.021 1301.72C516.143 1308.75 526.752 1307.1 528.025 1304.2C529.298 1301.31 538.21 1307.1 538.21 1307.1C539.483 1302.55 544.999 1298 544.999 1298C544.999 1298 544.999 1298 544.999 1287.67C543.302 1267.83 549.667 1190.13 549.667 1181.45C549.667 1172.77 555.184 1167.4 555.184 1167.4C555.608 1224.02 579.797 1227.33 579.797 1227.33L585.738 1219.89H590.83L591.679 1206.25C585.738 1197.98 589.133 1175.66 589.133 1175.66L596.771 1179.8C592.527 1173.6 592.952 1162.85 592.952 1162.85C592.952 1162.85 606.956 1166.16 612.897 1166.57C618.838 1166.98 623.506 1159.54 623.506 1159.54C621.808 1147.15 626.476 1143.43 627.749 1126.07C633.69 1138.05 649.391 1141.36 653.635 1141.77C655.757 1150.45 667.639 1151.28 667.639 1151.28L675.702 1146.73H680.794L681.218 1138.88L679.521 1124L689.281 1128.13L688.857 1119.04L680.794 1086.8L689.281 1085.98L689.705 1081.43L701.587 1081.84L699.466 1069.44C699.466 1069.44 699.466 1069.44 703.285 1069.86C704.134 1082.26 713.045 1092.59 713.045 1092.59L736.809 1098.79L741.477 1092.17L738.506 1074.82C738.506 1074.82 749.54 1079.36 757.603 1074.82C765.665 1070.27 758.876 1060.76 758.876 1060.76C750.388 1046.71 744.872 1005.38 744.872 1005.38C746.994 1009.1 757.178 1015.3 757.178 1015.3C757.178 1015.3 767.363 1016.13 770.758 1016.13C774.152 1016.13 775.85 1007.86 775.85 1007.86C781.367 1020.67 800.463 1033.48 800.463 1033.48C800.463 1033.48 812.769 1028.53 818.286 1028.53C823.802 1028.53 816.164 1014.06 816.164 1014.06C805.979 1002.9 801.736 980.994 801.736 980.994C814.042 997.94 832.714 999.18 832.714 999.18L836.957 992.98H843.323C843.323 992.98 829.319 972.728 823.802 956.609C818.286 940.49 813.193 908.665 813.193 908.665L830.592 915.278L838.655 910.732L843.323 901.639L836.533 894.199L828.046 871.467L826.349 857.828L903.582 781.779L910.371 791.285L931.165 781.779L921.405 759.46L923.951 751.607L937.53 756.98L948.988 750.781L954.929 753.261L959.172 745.821C951.534 738.381 943.896 698.704 943.896 698.704C943.896 698.704 960.87 737.968 968.508 744.581C976.147 751.194 979.966 753.261 979.966 753.261L983.785 747.888H995.243L998.213 739.208H1007.97L1010.94 734.662C1010.94 734.662 999.062 721.022 986.756 706.143C974.449 691.264 972.752 654.479 972.752 654.479L1009.25 650.76C1009.25 650.76 1023.25 678.038 1034.28 690.437C1045.32 702.837 1066.53 697.464 1066.53 697.464C1066.53 697.464 1057.2 685.891 1039.38 647.453C1021.55 609.015 1023.67 596.616 1023.67 596.616C1037.68 633.814 1069.51 635.88 1069.51 635.88C1066.53 630.921 1067.81 625.961 1067.81 625.961C1067.81 618.108 1061.44 611.495 1055.93 603.229C1050.41 594.963 1022.4 543.299 1022.4 536.273C1022.4 529.247 1029.62 536.273 1037.68 537.926C1045.74 539.579 1057.2 537.099 1057.62 532.553C1058.05 528.007 1057.2 521.807 1047.44 515.607C1021.55 499.075 1008.82 479.649 1001.61 461.464C994.394 443.278 960.021 340.777 960.021 340.777C969.781 323.831 996.092 233.73 996.516 223.81C996.94 213.891 990.151 214.718 990.151 214.718C982.088 212.651 982.936 206.865 982.936 206.865C991.848 198.185 1044.04 193.639 1074.17 193.639C1104.3 193.639 1173.47 185.786 1213.36 182.893C1253.25 180 1250.71 168.014 1249.43 164.294ZM654.484 528.42C653.635 530.9 649.391 539.579 647.27 542.059C645.148 544.539 645.572 551.979 646.421 555.285C647.27 558.592 648.118 591.656 646.845 594.549C646.845 594.549 637.509 600.336 636.236 602.816C634.963 605.296 630.295 632.657 626.476 638.36C622.657 644.147 599.742 664.812 592.952 668.532C586.162 672.252 490.682 716.889 480.073 719.369C469.464 721.849 441.032 716.063 439.334 714.409C437.637 712.756 433.818 706.557 431.696 708.623C431.696 708.623 432.545 697.877 428.725 696.637C424.906 695.397 359.98 670.185 354.463 665.639C348.946 661.092 339.61 657.373 347.249 642.08C354.887 626.788 394.777 526.767 401.567 508.168C408.356 489.569 415.146 471.383 415.146 467.663C415.146 463.944 419.814 439.558 412.175 428.399C404.537 417.24 401.142 412.693 404.961 406.493C408.781 400.294 426.179 396.574 429.574 396.574C432.969 396.574 437.637 395.747 437.637 395.747C437.637 395.747 430.847 385.001 414.722 382.521C414.722 382.521 425.755 313.912 440.607 295.726C440.607 295.726 441.881 303.993 448.67 303.993C455.46 303.993 483.468 293.246 511.475 269.688C511.475 269.688 511.475 279.607 516.992 283.327C522.508 287.047 529.298 285.394 538.21 278.781C538.21 278.781 541.18 288.7 546.272 288.7C551.365 288.7 574.704 275.887 584.889 266.381C584.889 266.381 607.804 341.19 654.059 380.042C654.059 380.042 648.967 432.945 650.24 445.758C651.513 458.57 652.362 481.303 657.454 490.809C657.454 496.595 655.332 525.94 654.484 528.42ZM836.533 810.545L798.086 742.184H808.271L776.02 694.819L736.979 638.36C736.979 638.36 713.215 539.414 713.809 527.345C714.403 515.194 697.429 426.498 730.189 413.272C763.034 400.046 782.809 410.544 789.005 428.73C795.201 446.915 798.086 508.664 769.23 520.732C758.451 524.039 744.363 509.16 744.363 509.16C744.363 509.16 731.208 509.738 726.2 516.351C726.2 516.351 726.794 526.271 735.875 532.884C744.957 539.497 772.116 560.989 801.481 526.849C801.481 526.849 858.09 652.496 891.445 751.69C883.467 765.329 836.533 810.545 836.533 810.545Z" fill="black"/>
<path d="M755.056 454.024C755.481 468.49 750.388 479.649 750.388 479.649L765.241 493.206C765.241 493.206 775.426 481.303 776.699 466.837C777.972 452.371 774.152 427.986 735.536 430.465C735.536 430.465 754.632 439.558 755.056 454.024Z" fill="black"/>
<path d="M449.094 435.012C449.094 435.012 442.305 411.04 449.094 403.6C455.884 396.161 464.796 394.921 468.615 392.854C472.434 390.788 483.043 383.348 488.56 388.721C494.076 394.094 494.501 397.401 494.501 397.401C494.501 397.401 494.585 392.441 500.951 393.681C507.231 394.921 508.504 399.467 508.504 399.467L515.718 397.401V400.707L525.903 394.921L528.449 399.467L532.268 396.574L536.512 392.441C536.512 392.441 542.877 392.441 543.726 394.094C544.575 395.747 550.516 395.747 550.516 395.747C550.516 395.747 553.911 395.747 556.032 402.36C558.154 408.973 557.306 426.332 556.032 432.119C554.759 437.905 547.97 439.558 547.97 439.558L545.848 436.665L542.453 439.558H539.482L535.663 433.772L531.42 437.078L530.147 439.558L525.903 437.492L521.659 434.185L517.416 437.078L514.87 439.558H509.777H505.11H502.988L500.951 441.211L497.895 437.905L496.622 441.211L493.228 438.318L491.53 441.211L487.287 438.732L483.892 441.211L480.921 438.732L477.102 441.211L472.858 437.078L470.737 441.211L466.493 437.078L464.796 441.211L459.703 437.492L456.308 438.732L449.094 435.012Z" fill="black"/>
<path d="M519.538 472.623C519.538 472.623 512.324 478.409 509.354 478.823C506.383 479.236 500.527 484.196 500.951 490.809C501.291 497.422 506.468 506.514 510.287 506.928C514.106 507.341 525.14 502.381 528.535 498.662C531.929 494.942 531.505 488.329 528.535 481.716C525.564 475.103 519.538 472.623 519.538 472.623Z" fill="black"/>
<path d="M451.726 461.712C456.224 459.48 584.295 438.484 706.34 434.433V414.016C706.34 414.016 471.501 419.554 459.11 421.538C446.718 423.522 449.519 413.685 439.334 414.016C439.334 414.016 425.246 423.356 424.143 438.401C421.766 439.724 418.88 440.963 416.249 441.211C409.969 441.873 373.22 439.723 357.349 457.331C357.349 457.331 360.149 471.383 363.544 472.623C366.939 473.863 392.401 471.631 399.19 469.978C404.452 468.655 417.268 467.002 424.821 469.564C425.331 493.454 425.585 522.716 424.058 527.841C421.851 535.529 417.862 558.674 428.641 567.519C439.419 576.364 450.707 565.866 451.811 553.218C452.914 540.571 447.228 463.943 451.726 461.712Z" fill="black"/>
<path d="M44.3424 995.708C44.3424 995.708 38.6561 996.287 33.0545 995.708C27.3681 995.13 24.5674 1002.9 26.8589 1006.21C29.1504 1009.51 39.335 1021.09 39.335 1031C39.335 1040.92 52.9145 1051.92 56.3093 1051.92C59.7042 1051.92 69.2946 1044.73 67.088 1037.04C64.7965 1029.35 58.6008 1004.55 52.9145 1000.09C47.2281 995.708 44.3424 995.708 44.3424 995.708Z" fill="black"/>
<path d="M14.3827 1013.89C14.3827 1013.89 5.30146 1013.32 4.19813 1017.78C3.0948 1022.16 1.39737 1030.43 0.209171 1034.89C-0.894159 1039.27 2.5007 1049.77 7.25351 1052C12.0912 1054.23 18.2868 1059.19 22.2758 1058.61C26.2647 1058.04 29.6596 1056.38 29.6596 1052C29.6596 1047.62 26.0101 1033.82 26.0101 1033.82C26.0101 1033.82 21.1724 1018.27 14.3827 1013.89Z" fill="black"/>
<path d="M336.301 940.573C334.009 933.96 322.721 902.548 322.721 902.548C322.721 902.548 321.109 887.09 315.422 884.362C309.736 881.635 305.747 879.981 301.843 879.981C297.854 879.981 192.613 927.925 192.613 927.925L101.546 962.065L85.675 953.799L76.5937 962.065V1000.67L72.6047 1014.47L91.8706 1040.35H101.461L160.871 1020.51L328.323 953.799C328.407 953.799 338.592 947.186 336.301 940.573ZM204.665 972.563L112.24 1013.89H106.553V989.095C123.528 986.367 193.122 962.643 199.912 960.163C206.702 957.684 209.502 960.163 209.502 960.163C212.388 969.256 204.665 972.563 204.665 972.563ZM300.145 927.347L295.053 933.381C295.053 933.381 243.027 954.873 237.934 954.873C232.842 954.873 233.945 947.186 233.945 947.186C233.945 947.186 292.761 919.659 296.75 919.659C300.654 919.659 300.145 927.347 300.145 927.347Z" fill="black"/>
</svg>
